<?xml version="1.0" standalone="no"?>
<!DOCTYPE svg PUBLIC "-//W3C//DTD SVG 20010904//EN"
 "http://www.w3.org/TR/2001/REC-SVG-20010904/DTD/svg10.dtd">
<svg version="1.0" xmlns="http://www.w3.org/2000/svg"
 width="400.000000pt" height="400.000000pt" viewBox="0 0 400.000000 400.000000"
 preserveAspectRatio="xMidYMid meet">

<g transform="translate(0.000000,400.000000) scale(0.100000,-0.100000)"
fill="#000000" stroke="none">
<path d="M1779 3659 c-18 -18 -20 -29 -15 -73 3 -28 17 -193 32 -366 15 -173
28 -316 29 -318 1 -2 19 -6 39 -9 l36 -6 0 135 c0 74 3 243 7 375 6 237 6 240
-15 261 -29 29 -85 29 -113 1z"/>
<path d="M2057 3652 c-12 -14 -23 -92 -47 -355 -18 -186 -30 -340 -28 -342 1
-2 19 -6 39 -10 l36 -7 47 244 c26 134 53 274 61 312 22 100 20 142 -7 160
-30 21 -81 20 -101 -2z"/>
<path d="M1532 3640 c-42 -18 -48 -52 -24 -143 12 -45 40 -152 62 -237 23 -85
44 -162 47 -170 3 -8 8 -24 10 -35 13 -70 25 -96 53 -110 29 -15 60 -20 60
-10 0 3 -20 131 -44 283 -25 152 -48 301 -52 330 -4 29 -14 62 -23 72 -20 24
-59 32 -89 20z"/>
<path d="M2343 3608 c-25 -12 -36 -43 -84 -223 -17 -66 -51 -192 -75 -279 -24
-88 -44 -166 -44 -173 0 -8 14 -13 39 -13 38 0 40 1 60 53 10 28 45 117 76
197 148 382 151 392 118 423 -25 21 -64 28 -90 15z"/>
<path d="M1265 3548 c-11 -6 -23 -16 -27 -22 -19 -28 -14 -41 155 -408 l35
-76 42 10 c23 6 44 16 46 22 6 16 -144 447 -163 468 -18 20 -58 23 -88 6z"/>
<path d="M2588 3498 c-9 -7 -76 -142 -150 -299 l-133 -286 3 -66 c2 -37 7 -67
10 -67 11 1 385 630 390 656 9 51 -77 95 -120 62z"/>
<path d="M1028 3421 c-27 -13 -34 -23 -36 -52 -3 -32 10 -55 110 -199 l113
-162 54 5 c29 3 55 8 57 10 5 5 -193 364 -213 389 -22 24 -49 28 -85 9z"/>
<path d="M2822 3353 c-11 -10 -111 -148 -223 -308 -111 -159 -211 -302 -223
-318 l-20 -27 24 -25 25 -24 265 305 c289 332 295 342 244 389 -32 29 -64 32
-92 8z"/>
<path d="M801 3244 c-55 -46 -48 -61 130 -243 128 -133 159 -160 159 -141 0
13 12 36 27 52 l26 27 -124 155 c-111 137 -150 176 -179 176 -5 0 -22 -12 -39
-26z"/>
<path d="M2731 2876 c-281 -281 -303 -306 -297 -331 5 -18 12 -25 21 -21 31
11 684 547 687 564 6 26 -12 71 -32 82 -55 29 -60 25 -379 -294z"/>
<path d="M610 3036 c-25 -27 -29 -68 -11 -90 7 -8 86 -67 176 -131 l164 -115
46 32 c35 25 43 35 33 44 -7 6 -84 73 -171 148 -172 148 -193 158 -237 112z"/>
<path d="M3138 2913 c-306 -209 -647 -449 -648 -454 0 -4 11 -14 24 -23 24
-15 34 -10 402 194 207 115 381 215 385 222 26 41 -13 118 -60 118 -11 0 -57
-26 -103 -57z"/>
<path d="M465 2805 c-30 -29 -33 -75 -7 -98 18 -17 355 -177 372 -177 5 0 10
5 10 11 0 6 10 24 21 41 18 25 19 32 8 42 -33 31 -338 206 -358 206 -12 0 -33
-11 -46 -25z"/>
<path d="M3180 2647 c-85 -40 -251 -118 -368 -172 l-212 -99 26 -24 c25 -24
27 -24 72 -9 63 21 649 222 690 237 52 19 67 68 36 115 -27 42 -71 33 -244
-48z"/>
<path d="M383 2570 c-46 -19 -60 -99 -20 -124 12 -8 116 -40 231 -71 164 -45
210 -55 216 -44 11 16 23 80 17 86 -6 5 -372 147 -402 156 -11 3 -30 2 -42 -3z"/>
<path d="M3370 2445 c-25 -8 -185 -51 -357 -96 -172 -45 -310 -86 -307 -90 8
-14 88 -10 135 6 51 18 73 13 66 -16 -5 -19 -2 -20 31 -15 20 3 151 24 290 46
139 22 255 40 257 40 16 0 35 38 35 69 0 68 -48 86 -150 56z"/>
<path d="M320 2297 c-46 -23 -53 -104 -11 -126 18 -10 573 -65 591 -59 6 2 -7
25 -28 53 l-37 49 -240 48 c-132 25 -242 47 -245 47 -3 0 -16 -5 -30 -12z"/>
<path d="M3138 2161 l-278 -26 -25 -37 c-14 -20 -25 -38 -25 -40 0 -2 21 -3
48 -3 26 -1 185 -3 354 -5 289 -4 308 -3 327 14 27 25 28 79 1 106 -25 25 -45
25 -402 -9z"/>
<path d="M292 2012 c-35 -35 -26 -99 17 -122 13 -6 87 -3 237 10 217 20 1067
90 1087 90 7 0 7 4 0 11 -18 18 -488 25 -520 8 -19 -10 -30 -11 -56 -1 -22 9
-146 14 -388 19 -355 6 -356 6 -377 -15z"/>
<path d="M2712 1953 l-21 -30 387 -77 c214 -42 398 -76 410 -76 36 0 64 36 60
77 -5 65 -16 68 -368 98 -173 14 -345 29 -381 32 -64 6 -66 5 -87 -24z"/>
<path d="M1560 1950 c-25 -5 -191 -32 -370 -60 -813 -130 -853 -137 -867 -156
-26 -36 -7 -110 32 -120 12 -3 127 22 256 56 428 113 820 216 952 251 118 31
117 50 -3 29z"/>
<path d="M1520 1865 c-150 -52 -710 -245 -938 -323 -175 -59 -201 -76 -188
-127 8 -33 41 -65 66 -65 17 0 357 152 815 363 66 30 178 82 249 114 71 32
131 64 134 71 5 16 4 16 -138 -33z"/>
<path d="M2623 1840 c-16 -24 -17 -40 -3 -40 6 0 180 -66 388 -146 207 -81
391 -149 409 -151 43 -7 73 24 73 76 0 21 -6 44 -14 50 -7 6 -114 38 -237 72
-123 33 -296 80 -384 104 -223 60 -218 59 -232 35z"/>
<path d="M1570 1807 c-41 -24 -156 -88 -255 -142 -631 -346 -752 -415 -773
-433 -28 -26 -28 -61 -1 -96 42 -54 43 -53 598 332 283 196 516 363 519 370 6
19 -8 14 -88 -31z"/>
<path d="M1198 1414 c-249 -201 -465 -378 -480 -392 -36 -33 -37 -74 -3 -107
53 -54 43 -62 517 412 241 241 438 441 438 445 0 5 -4 8 -9 8 -5 0 -213 -165
-463 -366z"/>
<path d="M2582 1712 l3 -36 353 -213 c235 -142 362 -213 381 -213 62 0 97 92
47 125 -13 9 -195 96 -405 195 l-382 179 3 -37z"/>
<path d="M1580 1599 c-69 -79 -250 -287 -402 -462 -153 -175 -281 -329 -284
-342 -13 -50 43 -96 99 -81 27 7 720 989 715 1013 -2 11 -48 -36 -128 -128z"/>
<path d="M1737 1673 c-487 -809 -617 -1027 -617 -1039 0 -24 56 -74 82 -74 14
0 34 10 45 23 11 12 67 121 123 242 56 121 119 256 140 300 20 44 85 182 144
307 58 124 106 231 106 237 0 12 -16 15 -23 4z"/>
<path d="M1783 1590 c-10 -23 -67 -171 -148 -380 -18 -47 -56 -143 -83 -215
-143 -369 -172 -448 -172 -470 0 -52 89 -85 125 -46 10 12 48 134 90 293 40
150 101 377 136 503 63 232 75 287 67 321 -4 17 -6 16 -15 -6z"/>
<path d="M2607 1528 c18 -62 21 -66 84 -118 l47 -40 31 26 c17 14 31 30 31 34
0 9 -191 150 -203 150 -2 0 2 -24 10 -52z"/>
<path d="M2859 1354 c-27 -73 -30 -70 127 -204 80 -69 156 -129 169 -134 48
-19 109 50 88 97 -10 21 -319 249 -358 263 -10 4 -18 -4 -26 -22z"/>
<path d="M2572 1340 l-33 -20 47 -58 c27 -31 52 -61 57 -67 14 -16 37 25 37
65 0 28 -8 43 -33 68 -18 18 -35 32 -37 32 -3 0 -20 -9 -38 -20z"/>
<path d="M2476 1182 c-17 -54 -17 -61 -3 -83 9 -13 68 -118 132 -234 63 -115
121 -213 128 -217 42 -27 125 30 113 77 -5 18 -311 468 -346 508 -4 4 -15 -19
-24 -51z"/>
<path d="M1782 1170 c-6 -30 -36 -184 -67 -342 -75 -386 -74 -379 -39 -407 31
-25 76 -23 103 3 10 10 22 103 42 323 37 400 37 404 0 445 l-29 32 -10 -54z"/>
<path d="M2762 1132 l-30 -50 99 -123 c55 -68 108 -130 117 -136 41 -33 112 6
112 60 0 28 -18 50 -127 159 -71 70 -131 130 -134 133 -4 3 -20 -16 -37 -43z"/>
<path d="M2366 992 c-14 -21 -26 -48 -26 -59 0 -18 70 -233 120 -370 27 -73
143 -58 143 20 0 24 -193 447 -204 447 -3 0 -18 -17 -33 -38z"/>
<path d="M1931 810 c-1 -63 -4 -172 -8 -241 l-6 -127 26 -26 c32 -32 68 -33
103 -3 l26 23 -13 148 c-12 140 -14 148 -36 157 -25 9 -28 15 -67 119 l-25 65
0 -115z"/>
<path d="M2245 780 c-16 -17 -26 -20 -57 -15 -37 7 -38 6 -33 -22 3 -15 14
-84 25 -152 22 -146 34 -166 95 -158 77 11 80 46 22 250 -33 118 -33 118 -52
97z"/>
</g>
</svg>
