<?xml version="1.0" standalone="no"?>
<!DOCTYPE svg PUBLIC "-//W3C//DTD SVG 20010904//EN"
 "http://www.w3.org/TR/2001/REC-SVG-20010904/DTD/svg10.dtd">
<svg version="1.0" xmlns="http://www.w3.org/2000/svg"
 width="2400.000000pt" height="2400.000000pt" viewBox="0 0 2400.000000 2400.000000"
 preserveAspectRatio="xMidYMid meet">

<g transform="translate(0.000000,2400.000000) scale(0.100000,-0.100000)"
fill="#000000" stroke="none">
<path d="M0 12000 l0 -12000 12000 0 12000 0 0 12000 0 12000 -12000 0 -12000
0 0 -12000z m22710 0 l0 -10710 -10710 0 -10710 0 0 10710 0 10710 10710 0
10710 0 0 -10710z"/>
<path d="M18635 20198 c-908 -694 -1431 -1016 -1895 -1168 -350 -114 -1057
-190 -1780 -190 -887 0 -1593 109 -2090 324 -333 145 -581 365 -680 607 -57
137 -65 180 -65 365 l0 170 -53 -8 c-284 -45 -520 -333 -609 -741 -26 -123
-24 -339 5 -485 135 -674 586 -1083 1412 -1281 424 -102 828 -144 1810 -186
509 -22 951 -53 967 -68 2 -3 -71 -101 -164 -219 -1392 -1760 -2851 -3887
-3984 -5810 l-104 -177 -45 -8 c-25 -4 -101 -7 -170 -7 -100 1 -141 7 -205 26
-314 94 -527 390 -591 820 -28 194 -11 428 41 551 18 42 -233 -78 -380 -182
-96 -68 -262 -230 -333 -326 -150 -203 -269 -508 -302 -775 -14 -119 -12 -326
5 -455 75 -565 384 -1017 818 -1196 91 -38 232 -75 320 -84 37 -4 67 -9 67
-12 0 -3 -67 -127 -149 -276 -82 -150 -231 -422 -330 -606 -522 -959 -843
-1480 -1209 -1961 -194 -255 -330 -410 -546 -625 -537 -535 -1090 -837 -1706
-930 -148 -22 -438 -30 -590 -16 -220 21 -473 71 -597 117 -438 165 -885 609
-1148 1138 -201 406 -261 806 -169 1124 31 106 60 172 119 267 60 96 85 169
85 247 -1 234 -242 287 -511 113 -153 -99 -400 -370 -530 -581 -315 -515 -398
-1154 -234 -1805 185 -729 680 -1389 1340 -1786 434 -261 914 -406 1465 -443
225 -15 794 2 1010 30 1612 211 3142 1512 4590 3905 317 524 651 1135 985
1805 75 151 138 276 139 276 5 5 2898 455 2901 452 3 -2 -38 -553 -90 -1224
-108 -1390 -122 -1679 -105 -2120 20 -542 69 -920 170 -1309 140 -546 346
-934 654 -1240 143 -141 264 -230 436 -319 189 -97 371 -155 606 -193 151 -25
556 -24 733 1 425 59 837 185 1246 379 241 114 360 187 533 327 108 86 283
263 353 355 185 242 305 503 349 760 33 194 25 329 -25 391 -20 25 -30 29 -72
28 -41 0 -83 -17 -273 -111 -632 -312 -1129 -453 -1600 -453 -487 0 -812 165
-979 497 -65 130 -96 289 -126 648 -59 711 -55 1676 10 2565 28 371 112 1172
130 1230 5 17 310 88 495 116 138 21 301 14 385 -15 195 -69 292 -231 313
-524 l7 -98 70 42 c127 76 258 182 385 309 243 244 334 412 384 710 26 155 36
267 36 400 0 608 -291 971 -876 1091 -73 15 -155 22 -310 26 -222 6 -365 -4
-549 -37 -55 -10 -102 -16 -104 -14 -12 11 354 1641 528 2354 381 1560 824
2919 1291 3955 120 266 184 401 306 640 62 121 144 276 182 345 l70 125 -142
70 c-77 39 -193 94 -256 124 -63 30 -200 96 -305 146 -459 221 -531 255 -545
254 -8 0 -109 -72 -225 -161z m-1592 -3465 c-288 -943 -547 -1920 -917 -3463
-74 -311 -177 -742 -229 -958 -52 -216 -97 -396 -101 -399 -6 -7 -2179 -274
-2184 -269 -1 2 69 122 157 267 188 312 352 599 681 1189 430 771 650 1146
907 1550 469 735 1015 1430 1567 1998 71 72 130 132 131 132 2 0 -4 -21 -12
-47z"/>
<path d="M20660 4619 c-187 -37 -326 -224 -305 -415 28 -262 308 -417 549
-303 75 35 132 93 173 177 36 71 38 82 38 166 0 81 -3 98 -32 158 -53 113
-151 191 -271 217 -60 12 -88 13 -152 0z m205 -110 c61 -30 129 -106 149 -166
48 -139 -16 -298 -146 -364 -60 -31 -160 -37 -229 -14 -79 27 -162 112 -185
190 -39 135 15 272 137 348 71 43 193 46 274 6z"/>
<path d="M20580 4240 l0 -220 40 0 40 0 0 90 0 90 29 0 c26 0 32 -7 72 -90
l42 -90 44 0 c23 0 43 4 43 9 0 4 -18 46 -39 91 l-39 83 39 37 c35 33 39 42
39 84 0 27 -7 60 -16 76 -30 50 -61 60 -183 60 l-111 0 0 -220z m212 123 c21
-19 23 -44 6 -61 -7 -7 -39 -12 -75 -12 l-63 0 0 38 c0 21 3 42 7 45 14 14
106 7 125 -10z"/>
</g>
</svg>
