<?xml version="1.0" standalone="no"?>
<!DOCTYPE svg PUBLIC "-//W3C//DTD SVG 20010904//EN"
 "http://www.w3.org/TR/2001/REC-SVG-20010904/DTD/svg10.dtd">
<svg version="1.0" xmlns="http://www.w3.org/2000/svg"
 width="200.000000pt" height="173.000000pt" viewBox="0 0 200.000000 173.000000"
 preserveAspectRatio="xMidYMid meet">

<g transform="translate(0.000000,173.000000) scale(0.100000,-0.100000)"
fill="#000000" stroke="none">
<path d="M539 1666 c-2 -2 -3 -99 -1 -215 l3 -211 74 0 c69 0 75 2 75 21 0 32
-17 55 -48 68 -24 10 -52 46 -52 65 0 2 17 -5 37 -15 45 -23 71 -9 33 19 -13
9 -27 19 -31 22 -3 3 -10 15 -14 28 -7 23 -7 23 24 7 34 -17 65 -10 39 9 -15
11 -38 49 -38 62 0 5 5 3 12 -4 11 -11 48 -17 48 -8 0 1 -5 17 -11 34 -8 24
-7 37 4 58 l14 28 13 -24 c7 -14 10 -38 6 -62 -6 -39 -6 -40 19 -34 31 8 34
-13 5 -39 -28 -26 -14 -37 26 -20 45 19 44 2 -2 -42 -20 -19 -34 -36 -32 -38
2 -3 19 -1 36 4 42 12 41 -1 -3 -45 -24 -24 -35 -44 -35 -64 l0 -30 125 0 125
0 0 24 c0 35 -10 56 -27 56 -19 0 -63 45 -63 64 0 13 6 12 36 -6 24 -14 38
-18 46 -10 7 7 2 15 -16 28 -25 15 -64 74 -51 74 3 0 20 -7 36 -16 40 -20 47
-12 20 22 -28 36 -27 46 5 38 26 -7 27 -6 20 29 -7 36 1 87 13 87 15 0 30 -62
20 -86 -13 -36 -12 -37 21 -31 24 5 28 4 23 -11 -3 -9 -13 -26 -22 -36 -15
-18 -15 -19 22 -12 24 5 37 3 37 -4 0 -13 -49 -60 -61 -60 -5 0 -9 -4 -9 -10
0 -14 20 -12 53 4 22 12 27 13 27 1 0 -15 -19 -36 -51 -59 -13 -8 -21 -27 -22
-47 l-2 -34 123 -3 c121 -3 122 -2 122 20 0 30 -8 41 -47 63 -26 15 -53 51
-53 70 0 3 17 -4 37 -15 44 -24 53 -25 53 -7 0 8 -11 19 -24 26 -23 13 -52 59
-42 68 2 2 18 -3 36 -12 39 -20 50 -12 23 18 -36 40 -37 47 -4 41 30 -6 30 -6
24 29 -3 20 -2 49 2 64 6 27 7 27 22 8 10 -14 13 -33 9 -62 -6 -45 7 -56 32
-31 23 23 13 -24 -10 -49 l-21 -23 22 0 c12 0 31 5 42 10 32 18 23 -9 -16 -46
-19 -18 -35 -35 -35 -38 0 -10 24 -6 53 8 39 21 34 1 -14 -46 -30 -30 -39 -46
-37 -66 3 -26 5 -27 68 -27 l65 0 0 210 0 210 -466 3 c-256 1 -467 0 -470 -2z"/>
<path d="M540 1223 c-5 -106 3 -481 11 -501 27 -71 73 -94 270 -136 64 -13
131 -32 148 -41 31 -15 35 -15 97 10 36 15 117 35 179 45 139 24 176 40 206
94 23 40 24 50 27 289 l4 247 -471 0 c-259 0 -471 -3 -471 -7z m449 -60 l38
-38 35 38 c28 30 42 37 72 37 43 0 91 -22 100 -45 3 -9 6 -32 6 -50 0 -73
-109 -91 -133 -23 -6 17 16 48 34 48 12 0 11 -14 -2 -27 -17 -17 -3 -43 24
-43 34 0 61 33 53 64 -15 61 -83 76 -128 29 -42 -45 -45 -77 -11 -112 37 -37
96 -47 180 -31 49 8 67 8 83 -2 25 -16 25 -20 2 -35 -14 -8 -40 -8 -99 0 -70
9 -88 8 -126 -7 -72 -27 -83 -80 -29 -138 49 -53 132 -23 132 47 0 22 -29 45
-56 45 -29 0 -41 -24 -24 -45 19 -23 3 -31 -20 -10 -25 23 -25 30 0 55 24 24
77 26 102 3 18 -16 24 -66 12 -98 -9 -23 -57 -45 -98 -45 -38 0 -90 37 -101
71 -7 20 -8 19 -25 -9 -43 -71 -127 -83 -183 -27 -24 23 -22 80 3 105 37 37
120 20 120 -24 0 -28 -24 -51 -41 -40 -9 5 -8 10 5 19 24 18 10 45 -25 45 -19
0 -34 -8 -44 -24 -15 -22 -15 -27 -1 -55 29 -54 103 -53 137 2 26 43 24 73 -7
102 -33 30 -93 40 -175 27 -52 -8 -68 -7 -87 6 l-24 15 25 13 c19 10 39 11 87
3 84 -13 147 -3 177 29 27 29 29 52 8 92 -36 69 -129 65 -150 -7 -8 -28 25
-63 59 -63 28 0 41 24 21 40 -21 17 -8 32 16 20 41 -22 8 -80 -46 -80 -60 0
-91 54 -64 114 14 30 43 44 93 45 32 1 45 -6 75 -36z"/>
<path d="M1020 1066 c0 -11 -12 -32 -26 -47 l-26 -27 22 -24 c12 -13 25 -31
29 -41 6 -16 11 -13 35 23 24 37 26 44 13 58 -8 10 -22 31 -30 47 -13 23 -16
26 -17 11z m15 -86 c-5 -8 -11 -8 -17 -2 -6 6 -7 16 -3 22 5 8 11 8 17 2 6 -6
7 -16 3 -22z"/>
<path d="M640 501 c0 -9 33 -21 58 -21 6 0 12 7 12 15 0 10 -11 15 -35 15 -19
0 -35 -4 -35 -9z"/>
<path d="M1295 500 c-3 -5 -2 -10 4 -10 5 0 15 -2 23 -5 7 -3 22 1 33 9 19 15
18 15 -17 16 -20 0 -40 -4 -43 -10z"/>
<path d="M660 451 c0 -5 -3 -16 -6 -24 -4 -10 4 -16 25 -19 23 -3 32 0 40 16
9 20 10 20 11 -4 l1 -25 15 25 14 25 -2 -25 c-2 -17 2 -26 16 -28 13 -3 16 0
10 10 -6 10 -4 10 10 -1 22 -18 66 -23 66 -8 0 8 4 7 9 -2 13 -20 40 -6 38 19
-1 20 -22 30 -57 28 -8 0 -42 4 -74 11 -47 9 -62 8 -68 -1 -6 -10 -8 -10 -8 0
0 6 -9 12 -20 12 -11 0 -20 -4 -20 -9z"/>
<path d="M1314 452 c-7 -4 -14 -16 -17 -27 -4 -18 -5 -18 -6 3 -1 24 -20 29
-39 10 -9 -9 -12 -9 -12 1 0 7 -4 10 -10 6 -5 -3 -7 -13 -4 -23 5 -16 5 -16
-9 1 -18 22 -27 22 -27 0 0 -15 -1 -15 -13 1 -10 14 -23 17 -62 13 -28 -3 -51
-6 -52 -7 -7 -4 -60 -3 -69 2 -5 2 -22 4 -39 3 -25 -1 -31 -7 -33 -28 -3 -27
12 -37 21 -14 4 8 8 9 14 1 12 -17 43 -13 44 5 0 10 4 8 9 -6 10 -25 25 -30
35 -13 5 8 11 8 19 1 7 -6 16 -8 19 -5 3 3 27 7 54 9 26 2 77 6 113 10 36 4
73 7 82 7 23 -1 31 13 23 38 -7 21 -22 25 -41 12z m-274 -53 c0 -5 -4 -9 -10
-9 -5 0 -10 7 -10 16 0 8 5 12 10 9 6 -3 10 -10 10 -16z m60 6 c0 -2 -7 -5
-15 -9 -9 -3 -15 0 -15 9 0 9 6 12 15 9 8 -4 15 -7 15 -9z m37 -7 c-3 -8 -6
-5 -6 6 -1 11 2 17 5 13 3 -3 4 -12 1 -19z m33 12 c0 -5 -4 -10 -10 -10 -5 0
-10 5 -10 10 0 6 5 10 10 10 6 0 10 -4 10 -10z"/>
<path d="M62 150 c-3 -74 42 -115 82 -74 11 10 16 32 15 67 l-2 52 -6 -53 c-6
-46 -20 -71 -42 -72 -17 0 -38 40 -42 80 l-4 45 -1 -45z"/>
<path d="M280 145 c0 -25 -3 -45 -7 -45 -3 0 -21 18 -40 40 -19 22 -38 40 -41
40 -4 0 -8 -25 -10 -55 -2 -33 1 -55 8 -55 5 0 10 19 10 42 l0 42 45 -44 45
-44 0 62 c0 34 -2 62 -5 62 -3 0 -5 -20 -5 -45z"/>
<path d="M310 125 c0 -37 4 -65 10 -65 6 0 10 28 10 65 0 37 -4 65 -10 65 -6
0 -10 -28 -10 -65z"/>
<path d="M340 187 c0 -3 12 -31 27 -62 l26 -58 29 57 c16 32 27 60 24 63 -2 3
-15 -16 -28 -42 l-24 -47 -19 42 c-16 35 -35 61 -35 47z"/>
<path d="M470 125 l0 -65 33 1 c29 1 30 2 7 8 -17 5 -24 14 -24 31 0 17 7 26
24 31 l25 7 -27 1 c-34 1 -32 33 3 42 21 6 20 7 -8 8 l-33 1 0 -65z"/>
<path d="M562 123 c1 -40 3 -53 5 -33 l5 35 30 -35 c16 -19 26 -28 22 -20 -4
8 -13 22 -21 31 -12 14 -10 18 12 33 21 14 24 20 15 36 -7 13 -21 20 -40 20
l-30 0 2 -67z m42 51 c30 -12 12 -44 -25 -44 -5 0 -9 11 -9 25 0 26 7 29 34
19z"/>
<path d="M667 183 c-16 -15 -5 -44 23 -58 17 -9 30 -22 30 -29 0 -21 -28 -27
-45 -9 -21 20 -29 12 -11 -12 15 -21 60 -15 70 10 5 14 -5 27 -49 63 -21 18
-8 35 22 27 16 -4 22 -2 18 5 -7 11 -48 14 -58 3z"/>
<path d="M763 125 c0 -38 2 -53 4 -32 2 20 2 52 0 70 -2 17 -4 1 -4 -38z"/>
<path d="M793 183 c14 -4 17 -16 17 -64 0 -33 4 -59 10 -59 6 0 10 26 10 59 0
48 3 60 18 64 9 3 -3 5 -28 5 -25 0 -37 -2 -27 -5z"/>
<path d="M880 187 c0 -4 8 -19 17 -33 9 -14 20 -42 24 -62 l7 -37 1 35 c1 19
10 50 21 68 11 17 16 32 12 32 -5 0 -15 -12 -23 -26 l-13 -26 -23 29 c-13 15
-23 24 -23 20z"/>
<path d="M1062 174 c-28 -19 -29 -67 -2 -94 57 -57 139 31 85 90 -22 24 -53
26 -83 4z m72 -13 c23 -26 17 -63 -14 -78 -51 -25 -91 36 -51 76 26 26 43 26
65 2z"/>
<path d="M1191 123 c1 -51 3 -59 8 -33 4 25 12 36 31 41 l25 7 -27 1 c-21 1
-28 6 -28 20 0 14 8 21 28 24 25 4 25 4 -5 6 l-33 1 1 -67z"/>
<path d="M1346 171 c-26 -29 -18 -82 17 -101 24 -13 30 -13 55 0 15 9 28 26
30 38 3 18 -1 22 -22 22 -32 0 -34 -17 -3 -22 22 -3 21 -4 -5 -22 -26 -17 -30
-17 -53 -2 -33 22 -33 60 -1 81 20 13 29 14 46 5 25 -13 42 -4 20 10 -25 16
-66 11 -84 -9z"/>
<path d="M1483 125 c0 -38 2 -53 4 -32 4 35 6 37 39 37 33 0 34 -2 34 -37 0
-20 3 -34 6 -30 10 9 11 118 2 123 -4 3 -8 -6 -8 -20 0 -23 -4 -26 -34 -26
-30 0 -35 4 -39 28 -2 15 -4 -4 -4 -43z"/>
<path d="M1810 143 l-1 -48 -40 43 c-22 23 -42 42 -44 42 -3 0 -4 -28 -3 -62
1 -57 2 -58 5 -15 2 26 7 47 11 47 3 0 23 -19 44 -42 l37 -43 2 30 c1 17 2 43
3 58 1 16 -2 31 -6 33 -4 3 -8 -16 -8 -43z"/>
<path d="M1614 125 c-24 -57 -32 -84 -13 -52 13 23 74 23 83 1 4 -9 9 -15 11
-12 6 6 -42 118 -50 118 -4 0 -17 -25 -31 -55z m34 -23 c-27 -5 -32 2 -18 29
l13 22 13 -24 c11 -22 11 -24 -8 -27z"/>
<path d="M1863 124 c-14 -30 -22 -58 -19 -61 3 -3 8 2 12 11 4 10 18 16 39 16
21 0 35 -6 39 -16 4 -9 9 -15 11 -12 6 6 -42 118 -50 118 -4 0 -18 -25 -32
-56z m57 -16 c0 -4 -11 -8 -25 -8 -28 0 -30 3 -14 32 11 21 12 21 25 3 8 -10
14 -22 14 -27z"/>
</g>
</svg>
