<?xml version="1.0" standalone="no"?>
<!DOCTYPE svg PUBLIC "-//W3C//DTD SVG 20010904//EN"
 "http://www.w3.org/TR/2001/REC-SVG-20010904/DTD/svg10.dtd">
<svg version="1.0" xmlns="http://www.w3.org/2000/svg"
 width="200.000000pt" height="200.000000pt" viewBox="0 0 200.000000 200.000000"
 preserveAspectRatio="xMidYMid meet">

<g transform="translate(0.000000,200.000000) scale(0.100000,-0.100000)"
fill="#000000" stroke="none">
<path d="M873 1776 c-212 -41 -381 -143 -500 -301 -106 -142 -152 -270 -160
-445 -11 -231 54 -408 212 -578 309 -333 833 -337 1149 -8 375 390 254 1036
-236 1266 -146 68 -322 93 -465 66z m49 -45 c-11 -7 -10 -9 2 -14 20 -8 21
-31 1 -47 -22 -18 -19 -30 8 -30 19 -1 20 -2 6 -13 -8 -7 -18 -20 -22 -29 -4
-11 -12 -15 -22 -11 -13 5 -14 7 -3 14 9 6 6 9 -12 10 -17 1 -19 3 -7 6 9 2
17 13 17 24 0 11 -4 17 -10 14 -5 -3 -10 -2 -10 4 0 6 11 13 25 17 14 4 24 11
22 18 -8 24 -33 9 -53 -31 -15 -30 -24 -39 -32 -31 -13 13 0 43 28 68 9 8 15
20 13 26 -5 15 39 34 52 22 6 -6 5 -12 -3 -17z m243 -8 c-5 -22 -4 -25 8 -15
8 7 17 9 21 5 3 -3 -6 -15 -21 -25 -16 -10 -22 -18 -14 -18 9 0 12 -8 9 -23
-2 -13 2 -29 10 -36 18 -17 0 -39 -20 -24 -20 16 -67 22 -72 9 -3 -6 -8 -1
-11 12 -5 13 -15 22 -27 22 -30 0 -18 34 14 38 29 4 46 31 26 44 -10 6 -8 8 5
8 10 0 20 7 23 15 4 8 17 15 31 15 22 0 24 -3 18 -27z m-317 -2 c3 -8 -1 -12
-9 -9 -7 2 -15 10 -17 17 -3 8 1 12 9 9 7 -2 15 -10 17 -17z m-158 -61 c13
-11 29 -20 37 -20 16 0 17 -12 3 -26 -7 -7 -6 -20 5 -40 8 -16 15 -35 15 -41
0 -20 -18 -15 -30 8 -11 19 -13 19 -29 5 -14 -13 -20 -13 -30 -3 -10 9 -11 8
-6 -5 4 -10 11 -18 16 -18 5 0 9 -5 9 -11 0 -6 -6 -9 -14 -6 -8 3 -20 -1 -26
-8 -15 -18 -30 -10 -30 15 0 10 -5 20 -11 22 -12 4 -1 108 12 108 5 0 9 -7 9
-15 0 -8 7 -15 15 -15 9 0 12 6 9 15 -4 8 -2 15 4 15 6 0 8 9 5 20 -3 11 -1
20 4 20 6 0 20 -9 33 -20z m690 -55 c-10 -12 -9 -15 9 -15 15 0 21 6 21 21 0
18 2 19 15 9 8 -7 15 -16 15 -21 0 -5 -7 -9 -15 -9 -8 0 -15 -4 -15 -10 0 -5
-13 -10 -30 -10 -29 0 -40 -13 -21 -24 11 -7 2 -56 -11 -56 -5 0 -12 9 -15 20
-5 19 -6 20 -20 3 -14 -17 -14 -17 -10 5 6 25 3 26 -24 12 -16 -9 -19 -7 -19
10 0 13 10 25 28 33 15 6 30 16 33 21 4 5 11 6 17 2 5 -3 18 6 28 21 11 17 19
23 22 15 2 -7 -2 -19 -8 -27z m-233 -72 c34 -15 78 -47 108 -78 31 -32 73 -63
106 -78 30 -13 75 -44 100 -70 64 -64 91 -125 97 -220 5 -89 -8 -147 -48 -210
-19 -30 -29 -61 -33 -105 -11 -132 -105 -249 -231 -290 -77 -26 -121 -27 -195
-8 -45 12 -59 11 -99 -1 -98 -30 -235 4 -320 82 -53 47 -99 139 -107 213 -4
35 -21 85 -43 131 -35 69 -37 80 -37 165 0 74 5 101 24 144 30 67 119 150 190
177 28 11 58 30 66 42 37 56 124 113 202 133 59 14 157 3 220 -27z m-615 -51
c41 -39 49 -53 44 -70 -4 -12 -14 -22 -22 -22 -8 0 -14 -4 -14 -10 0 -5 -11
-17 -25 -26 -25 -16 -26 -15 -65 25 -28 28 -40 50 -40 70 0 32 34 81 56 81 9
0 38 -22 66 -48z m1048 -1 c0 -5 -7 -14 -15 -21 -16 -13 -21 -35 -6 -26 9 6
25 -23 17 -31 -3 -3 -15 2 -27 11 -16 11 -34 14 -61 10 -30 -5 -38 -3 -38 8 0
11 7 14 24 11 22 -5 24 -2 19 18 -6 23 -6 23 14 6 19 -16 21 -16 38 3 19 21
35 26 35 11z m-70 -95 c0 -26 -15 -43 -24 -28 -7 12 4 52 15 52 5 0 9 -11 9
-24z m-1130 -97 c0 21 13 4 17 -22 2 -12 16 -32 31 -44 l27 -22 -26 -1 c-15 0
-32 -7 -39 -15 -7 -8 -25 -15 -40 -15 -23 0 -27 3 -23 24 4 20 -1 28 -28 41
-31 17 -32 18 -14 31 11 8 25 12 32 10 8 -3 13 2 13 13 0 29 13 33 32 9 11
-15 18 -18 18 -9z m1330 22 c0 -10 -30 -24 -37 -17 -3 3 -2 9 2 15 8 13 35 15
35 2z m-42 -38 c13 -3 22 -1 22 6 0 20 15 11 27 -15 14 -30 7 -52 -10 -35 -17
17 -27 13 -27 -8 0 -17 -5 -19 -37 -14 -35 6 -37 5 -24 -11 17 -21 7 -33 -14
-16 -9 7 -18 10 -22 7 -9 -10 -33 13 -33 32 0 9 5 23 10 31 8 13 12 12 25 -7
19 -27 35 -30 35 -6 0 14 2 14 20 -2 23 -21 39 -13 20 10 -9 11 -22 14 -42 10
-30 -7 -31 -6 -22 20 5 12 13 15 28 10 11 -4 31 -9 44 -12z m-1330 -305 c-42
-11 -50 -34 -15 -41 l22 -4 -23 -2 c-24 -1 -38 20 -28 44 3 10 18 15 43 14
l38 -1 -37 -10z m1372 5 c-8 -3 -20 -12 -27 -20 -10 -13 -12 -12 -10 6 1 16 8
21 27 20 15 0 19 -3 10 -6z m5 -23 c-3 -5 -10 -10 -16 -10 -5 0 -9 5 -9 10 0
6 7 10 16 10 8 0 12 -4 9 -10z m-1345 -20 c0 -5 -4 -10 -10 -10 -5 0 -10 5
-10 10 0 6 5 10 10 10 6 0 10 -4 10 -10z m1340 -9 c0 -5 -9 -7 -20 -4 -11 3
-20 0 -20 -6 0 -6 9 -11 20 -11 11 0 20 -4 20 -9 0 -4 -11 -6 -25 -3 -16 3
-25 11 -25 23 0 14 7 19 25 19 14 0 25 -4 25 -9z m-1362 -33 c-2 -16 -11 -24
-28 -26 l-25 -2 25 15 c24 16 24 16 3 12 -27 -6 -31 9 -5 16 31 8 33 7 30 -15z
m1352 -28 c0 -4 -11 -5 -25 -2 -14 2 -25 8 -25 12 0 4 11 5 25 2 14 -2 25 -8
25 -12z m-1344 -19 c-8 -12 -46 -21 -46 -11 0 9 18 18 38 19 7 1 11 -3 8 -8z
m1340 -10 c-3 -5 -15 -7 -26 -4 -27 7 -25 -5 3 -18 20 -9 19 -9 -7 -5 -48 6
-75 -33 -37 -54 16 -8 23 -6 35 12 18 25 21 17 6 -13 -18 -33 -70 -18 -70 21
0 28 43 70 73 70 16 0 26 -4 23 -9z m-1326 -21 c0 -5 -6 -10 -12 -11 -7 0 -4
-4 7 -9 17 -7 14 -9 -14 -9 -33 -1 -34 -1 -16 19 20 22 35 26 35 10z m6 -49
c-4 -5 0 -11 6 -14 8 -2 9 -8 4 -13 -5 -5 -11 -4 -13 4 -3 6 -9 12 -15 12 -6
0 -8 -7 -4 -15 3 -8 1 -15 -4 -15 -15 0 -12 37 3 43 20 9 29 8 23 -2z m1255
-73 c8 -3 11 -8 7 -12 -7 -8 -49 11 -60 28 -13 20 3 25 21 7 10 -10 25 -21 32
-23z m-1221 14 c0 -4 -11 -8 -25 -8 -28 -2 -34 12 -7 19 19 4 32 0 32 -11z
m-7 -53 c-6 -6 -15 -4 -24 7 -12 16 -12 17 4 11 10 -4 17 -2 18 6 0 8 2 8 6
-1 3 -8 1 -18 -4 -23z m1212 -4 c0 -24 -36 -28 -43 -5 -4 13 -3 13 10 2 11 -9
18 -10 23 -2 3 5 -4 15 -17 20 l-23 10 25 -3 c18 -1 25 -8 25 -22z m-1188 -22
c-9 -9 -20 -14 -24 -10 -3 4 2 14 13 21 25 19 33 10 11 -11z m43 -2 c0 -5 -11
-16 -25 -25 -29 -19 -33 -11 -8 16 17 19 33 24 33 9z m1095 -41 c17 -32 20
-55 4 -27 -5 9 -16 17 -24 17 -8 0 -17 5 -21 12 -5 8 -2 9 10 5 14 -5 17 -3
12 8 -10 26 3 16 19 -15z m-1088 -1 c-4 -16 -2 -19 11 -14 11 4 13 3 7 -3 -16
-15 -75 -25 -75 -13 0 6 7 8 15 5 10 -4 18 3 25 20 11 31 25 35 17 5z m1060
-57 c-7 -9 -5 -11 9 -5 17 6 17 5 5 -11 -13 -16 -16 -15 -43 11 -26 25 -27 29
-13 39 22 16 58 -14 42 -34z m-987 -10 c0 -11 -22 -32 -33 -32 -5 0 -4 7 3 15
7 9 10 19 6 22 -4 4 -11 1 -16 -7 -5 -8 -12 -11 -16 -7 -4 3 -1 13 6 22 9 11
17 12 31 4 10 -5 19 -13 19 -17z m946 -27 c-3 -9 -14 -15 -23 -13 -22 4 -30
38 -11 49 18 11 43 -15 34 -36z m-896 13 c0 -6 -3 -8 -7 -5 -3 4 -16 -4 -28
-18 -13 -13 -26 -21 -29 -18 -8 9 34 53 51 53 7 0 13 -5 13 -12z m854 -47 c-7
-7 -54 41 -48 50 3 5 16 -3 29 -19 13 -15 21 -29 19 -31z m-805 15 c8 -10 9
-16 1 -21 -5 -3 -10 1 -10 9 0 9 -5 16 -10 16 -6 0 -8 -10 -4 -24 8 -35 -2
-49 -27 -36 -10 6 -19 16 -19 22 0 9 3 9 12 0 18 -18 30 -14 23 8 -11 35 12
53 34 26z m779 -30 c-2 -15 -9 -20 -25 -19 -16 2 -21 -2 -17 -12 8 -20 -6 -19
-23 3 -13 15 -13 15 -7 -8 6 -24 5 -24 -12 -8 -14 14 -15 20 -4 33 10 12 16
13 26 4 11 -9 14 -7 14 9 0 11 6 22 13 25 22 7 38 -5 35 -27z m-749 -15 c9 -6
10 -11 2 -15 -6 -4 -11 -2 -11 5 0 10 -3 10 -12 1 -10 -10 -10 -15 2 -22 13
-8 13 -10 -1 -10 -23 0 -30 10 -18 31 11 21 18 23 38 10z m30 -29 c-6 -18 -15
-32 -20 -32 -5 0 -1 16 8 35 20 42 27 40 12 -3z m601 -37 c0 -5 -9 1 -20 15
-11 14 -20 19 -20 12 0 -7 -4 -10 -10 -7 -5 3 -10 -1 -10 -9 0 -9 8 -16 17
-16 14 0 15 -2 4 -12 -10 -11 -15 -9 -27 7 -13 18 -13 22 6 37 11 9 20 22 20
30 0 7 9 0 20 -17 11 -16 20 -34 20 -40z m17 36 c7 -10 9 -22 6 -25 -6 -6 -32
23 -33 37 0 14 15 7 27 -12z m-567 -18 c0 -9 -6 -13 -15 -9 -8 3 -15 1 -15 -3
0 -5 6 -12 13 -14 7 -3 6 -6 -5 -6 -20 -1 -30 12 -23 31 8 19 45 20 45 1z
m408 0 c-10 -2 -18 -5 -18 -6 0 -1 4 -17 9 -35 6 -20 6 -32 0 -32 -5 0 -12 14
-16 31 -4 20 -10 28 -19 25 -8 -3 -14 -1 -14 4 0 10 25 18 55 18 16 0 17 -1 3
-5z m-358 -20 c0 -10 -5 -25 -11 -33 -8 -12 -9 -9 -5 13 7 32 -9 37 -17 5 -4
-12 -8 -20 -11 -17 -3 3 -3 15 1 27 7 27 43 30 43 5z m410 6 c0 -5 -4 -7 -10
-4 -5 3 -10 -1 -10 -10 0 -11 5 -15 15 -11 8 3 15 1 15 -3 0 -5 -7 -11 -15
-15 -20 -7 -38 27 -23 42 15 15 28 15 28 1z m-387 -15 c-3 -9 0 -20 8 -24 7
-5 10 -12 6 -16 -3 -4 -13 -1 -22 6 -11 9 -12 17 -4 31 12 23 21 25 12 3z
m259 -18 c3 -27 0 -36 -14 -39 -11 -3 -22 2 -27 11 -11 22 -3 42 15 42 9 0 12
5 9 10 -3 6 -2 10 3 10 6 0 12 -15 14 -34z m-182 2 c0 -6 -7 -8 -15 -4 -8 3
-15 1 -15 -4 0 -6 5 -10 10 -10 6 0 10 -4 10 -10 0 -16 -20 -12 -26 5 -9 23 3
45 21 39 8 -3 15 -11 15 -16z m70 -17 c0 -24 -3 -28 -20 -24 -17 5 -20 19 -11
51 1 1 8 2 16 2 10 0 15 -10 15 -29z m54 7 c3 -13 1 -27 -4 -32 -7 -7 -10 0
-11 20 -1 23 -3 24 -6 7 -6 -31 -23 -29 -23 2 0 33 35 35 44 3z"/>
<path d="M1130 1726 c-6 -9 -10 -21 -8 -28 3 -8 9 -4 17 10 15 28 9 39 -9 18z"/>
<path d="M1106 1661 c-18 -20 -19 -23 -3 -38 16 -16 17 -16 17 1 0 12 5 16 15
12 8 -3 15 -1 15 4 0 6 -4 10 -9 10 -5 0 -11 7 -13 16 -2 14 -6 13 -22 -5z"/>
<path d="M607 1581 c-4 -17 -3 -21 5 -13 5 5 8 16 6 23 -3 8 -7 3 -11 -10z"/>
<path d="M887 1449 c-228 -54 -389 -298 -349 -531 22 -125 84 -228 183 -302
85 -64 171 -90 289 -89 114 1 180 23 269 88 204 150 253 435 110 641 -67 96
-149 156 -258 188 -59 17 -182 20 -244 5z m206 -24 c56 -8 152 -60 208 -112
104 -97 144 -199 137 -347 -7 -142 -62 -244 -176 -328 -176 -130 -414 -112
-570 43 -172 170 -176 433 -10 614 61 67 169 124 255 134 57 7 78 6 156 -4z"/>
<path d="M915 1410 c-122 -24 -243 -121 -299 -239 -29 -62 -31 -73 -31 -181 0
-104 3 -121 27 -173 38 -80 123 -167 206 -208 64 -33 71 -34 183 -34 112 0
117 1 184 35 135 68 219 185 238 332 38 284 -223 524 -508 468z m120 -30 c25
-7 26 -8 7 -9 -13 -1 -26 -9 -30 -20 -6 -18 -10 -16 -47 15 l-40 33 40 -5 c22
-4 54 -10 70 -14z m134 -104 c102 -69 152 -160 149 -271 0 -29 -3 -22 -9 28
-10 75 -33 129 -80 182 -37 42 -72 64 -63 40 4 -8 10 -15 16 -15 18 0 59 -110
63 -167 l4 -58 -8 54 c-11 67 -37 135 -58 153 -15 12 -15 11 -3 -12 22 -41 18
-147 -9 -207 -13 -29 -27 -53 -31 -53 -4 0 5 23 19 52 20 41 25 66 25 120 -1
38 -6 74 -13 81 -8 8 -11 -1 -11 -38 -1 -83 -51 -173 -132 -236 -35 -27 -32
-22 19 30 70 71 103 141 103 221 0 59 -11 91 -41 119 -37 34 -11 24 60 -23z
m-449 -206 c0 -27 -4 -50 -10 -50 -5 0 -10 14 -10 30 0 21 -5 30 -17 30 -14 0
-14 2 2 20 28 31 35 24 35 -30z m85 0 c0 -41 -2 -45 -24 -45 -13 0 -26 6 -29
14 -3 10 2 11 19 6 l24 -7 -22 17 c-38 27 -26 67 17 62 11 -2 15 -15 15 -47z
m85 40 c0 -5 -8 -10 -17 -10 -15 0 -14 -2 4 -15 36 -25 10 -77 -31 -62 -23 9
-20 30 4 22 14 -5 20 -2 20 10 0 9 -6 15 -14 13 -15 -3 -16 -1 -16 32 0 15 7
20 25 20 14 0 25 -4 25 -10z m75 -40 c0 -41 -2 -45 -25 -45 -22 0 -25 5 -26
35 -2 48 5 62 30 58 18 -3 21 -10 21 -48z m272 -92 c-3 -7 -5 -2 -5 12 0 14 2
19 5 13 2 -7 2 -19 0 -25z m70 -55 c-3 -10 -5 -4 -5 12 0 17 2 24 5 18 2 -7 2
-21 0 -30z m-324 -117 l21 -24 20 25 c17 22 25 25 65 20 72 -9 214 -41 236
-54 17 -10 10 -12 -45 -12 -36 0 -90 4 -120 7 -80 10 -121 4 -127 -18 -7 -28
-49 -32 -61 -5 -13 27 -57 35 -132 24 -30 -4 -81 -8 -114 -8 -49 -1 -57 1 -47
13 6 8 35 17 64 20 29 4 73 13 98 21 70 22 117 19 142 -9z"/>
<path d="M770 1085 c0 -8 5 -15 10 -15 6 0 10 7 10 15 0 8 -4 15 -10 15 -5 0
-10 -7 -10 -15z"/>
<path d="M935 1090 c3 -5 8 -10 11 -10 2 0 4 5 4 10 0 6 -5 10 -11 10 -5 0 -7
-4 -4 -10z"/>
<path d="M930 1050 c0 -5 5 -10 10 -10 6 0 10 5 10 10 0 6 -4 10 -10 10 -5 0
-10 -4 -10 -10z"/>
<path d="M442 1498 c-7 -7 -12 -23 -12 -37 0 -24 0 -24 15 -5 10 13 17 15 22
8 5 -6 19 -11 33 -10 22 1 25 -2 21 -29 -3 -30 -23 -53 -29 -35 -2 6 -11 10
-19 10 -14 0 -13 -3 2 -20 l19 -21 28 30 c15 16 28 35 28 40 0 14 -71 81 -85
81 -6 0 -16 -5 -23 -12z"/>
<path d="M455 1429 c-4 -6 -5 -12 -2 -15 2 -3 7 2 10 11 7 17 1 20 -8 4z"/>
<path d="M350 1210 c0 -5 7 -10 16 -10 8 0 12 5 9 10 -3 6 -10 10 -16 10 -5 0
-9 -4 -9 -10z"/>
<path d="M1560 1226 c0 -2 8 -10 18 -17 15 -13 16 -12 3 4 -13 16 -21 21 -21
13z"/>
<path d="M1500 540 c8 -5 20 -10 25 -10 6 0 3 5 -5 10 -8 5 -19 10 -25 10 -5
0 -3 -5 5 -10z"/>
<path d="M1462 499 c2 -7 10 -15 17 -17 8 -3 12 1 9 9 -2 7 -10 15 -17 17 -8
3 -12 -1 -9 -9z"/>
<path d="M1390 442 c0 -5 7 -13 16 -16 10 -4 14 -1 12 6 -5 15 -28 23 -28 10z"/>
<path d="M1060 315 c0 -8 5 -15 10 -15 6 0 10 7 10 15 0 8 -4 15 -10 15 -5 0
-10 -7 -10 -15z"/>
</g>
</svg>
